<svg width="210" height="190" xmlns="http://www.w3.org/2000/svg">

 <metadata id="metadata3500">image/svg+xml</metadata>
 <g>
  <title>background</title>
  <rect fill="none" id="canvas_background" height="192" width="212" y="-1" x="-1"/>
 </g>
 <g>
  <title>Layer 1</title>
  <g id="layer1">
   <g id="g3458" transform="matrix(3.6676776,0,0,3.6676776,-1085.838,-600.96915) ">
    <path fill="#e6e6e6" fill-rule="evenodd" stroke-width="0.264583px" d="m304.15091,184.75954l8.70353,-6.8903l10.14667,2.05446l8.29741,-4.71186l14.63238,20.59739l-11.96848,5.8481l-10.22812,-1.3442l-9.00411,9.62509l-10.57928,-25.17868z" id="path23-7"/>
    <path fill="#f59318" fill-rule="evenodd" stroke-width="0.264583px" d="m311.24,179.13117l-2.4722,1.93786l3.09748,6.5872l-7.13755,-1.52445l0.93535,2.22673l7.29568,1.62264l6.84181,14.55592l3.10915,-3.33076l-11.66972,-22.07514z" id="path29-2"/>
    <path fill="#ffffff" stroke-width="0.264583px" d="m310.1026,180.04739l-0.26045,0.20671l0.53072,1.09347l0.32194,-0.16743l-0.59221,-1.13275zm1.08469,2.07481l-0.34985,0.18242l0.4532,0.93431l0.37776,-0.19689l-0.48111,-0.91984zm0.97358,1.8619l-0.40566,0.21188l0.5054,1.04128l0.43666,-0.2279l-0.5364,-1.02526zm1.02888,1.96732l-0.46509,0.24237l0.57929,1.19372l0.50023,-0.26045l-0.61443,-1.17564zm1.10742,2.11719l-0.52864,0.27543l0.64698,1.33326l0.56793,-0.29611l-0.68627,-1.31258zm1.17926,2.25464l-0.59634,0.31109l0.73432,1.51309l0.6413,-0.33383l-0.77928,-1.49035zm1.27176,2.43241l-0.66921,0.34881l0.72657,1.49707l0.71365,-0.37207l-0.77101,-1.47381zm1.26349,2.41587l-0.74208,0.38654l1.02165,2.1053l0.80408,-0.41909l-1.08365,-2.07275zm1.57664,3.0148l-0.83302,0.43357l0.78652,1.62058l0.88056,-0.45889l-0.83406,-1.59526zm1.32654,2.53732l-0.90899,0.47335l0.97934,1.99501l0.79117,-0.84595l-0.86152,-1.62241z" id="path1025-0"/>
    <path fill="#f6d01e" fill-rule="evenodd" stroke-width="0.264583px" d="m315.04855,178.26249l7.213,13.84566l-2.40192,0.2527c-3.02332,2.6741 -6.13047,5.25099 -9.21494,7.85379l0.90381,2.1518c3.04171,-2.75024 6.06707,-5.51702 9.04597,-8.33489l2.44584,-0.42788l3.6344,6.9758l1.73737,0.26717l-8.41138,-16.23622l5.20434,-0.0672l9.28729,-4.81056l-0.93535,-1.40353l-8.95346,4.81108l-5.4684,-0.19999l-2.21537,-4.27674l-1.8712,-0.40099z" id="path31-1"/>
    <path fill="#82d1f3" fill-rule="evenodd" stroke-width="0.264583px" d="m333.96242,201.65733l11.96848,-5.8481l-3.63108,-5.11132c-2.64763,-3.47178 -6.17563,-0.41039 -8.2082,0.9281c-2.26175,1.63725 -0.79389,4.40005 -2.73951,5.67947c-3.47942,-0.22559 -2.50267,3.27825 -1.00226,3.87541l3.61257,0.47644z" id="path37-6"/>
    <path fill="#cccccc" stroke-width="0.264583px" d="m321.52995,185.74608l4.27631,-0.4009l5.27858,-2.53906l2.67269,4.54358l-5.74629,2.47224l-3.94223,0.80181l-2.53906,-4.87767z" id="path1159-4"/>
    <path fill="#cccccc" stroke-width="0.264583px" d="m324.804,191.75965l2.27179,4.81085l3.20724,-1.1359l-2.27179,-4.34313l-3.20724,0.66818z" id="path1161-3"/>
    <path fill="#cccccc" stroke-width="0.264583px" d="m318.58999,179.6657l1.06907,2.73951l3.54132,-0.0668c0,0 -1.06907,-2.13815 -1.33634,-2.27179c-0.26727,-0.13363 -3.27405,-0.4009 -3.27405,-0.4009l0,-0.00002z" id="path1165-8"/>
    <path fill="#1a1a1a" fill-opacity="0.194444" fill-rule="evenodd" stroke-width="0.264583px" d="m323.7343,200.31313l10.22812,1.3442l-10.96131,-21.73363l-10.14667,-2.05446l10.87986,22.44389z" id="path35-56"/>
    <path fill="#cccccc" stroke-width="0.264583px" d="m332.35437,182.33839l2.80633,-1.46998l4.67721,6.54811l-3.40768,1.33634l-4.07586,-6.41447z" id="path1167-1"/>
    <path opacity="0.514" fill="#7a7a7a" fill-rule="evenodd" stroke-width="0.124495" stroke-miterlimit="4" d="m335.87044,181.80196c-0.59615,-0.70138 -1.25088,-1.11682 -1.65993,-0.98606c-1.05839,0.28995 -1.4393,0.92983 -1.47984,1.74576l-2.34847,0.55995c-1.24352,-0.40593 -2.10546,-0.63539 -3.23446,-0.27008c-0.7743,0.19857 -0.75585,1.96573 -0.22829,3.68711l-3.72745,1.86026l4.0458,-0.97906c0.53614,1.27629 1.34542,2.36021 2.3019,2.5124c0.99249,-0.10607 1.77906,-1.15041 2.54291,-2.29897l1.98354,-1.1136c0.67163,0.80207 2.20229,1.09063 2.89278,-0.0329c0.73675,-1.55284 -0.0948,-3.51593 -1.08847,-4.68485l-0.00002,0.00004z" id="path27-5-7"/>
    <path fill="#cccccc" stroke-width="0.264583px" d="m333.10447,177.98826l-1.35001,-1.90818c-0.53454,0.13363 -2.47369,1.51428 -2.47369,1.51428l0.80991,2.02073l3.01379,-1.62683z" id="path1169-1"/>
    <path fill="#ffffff" stroke-width="0.264583px" d="m305.07086,186.96377l0.30696,0.47232l0.71365,0.16381l0.0884,-0.40566l-1.10901,-0.23047zm2.14974,0.44648l-0.0925,0.42685l1.279,0.29352l0.0987,-0.4532l-1.2852,-0.26717zm2.32596,0.48369l-0.10335,0.47439l1.60248,0.36742l0.11059,-0.50746l-1.60972,-0.33435zm2.65048,0.55087l-0.11523,0.52865l1.29036,0.29611l-0.45837,-0.67593l-0.71676,-0.14883z" id="path1027-4"/>
    <path fill="#008000" stroke-width="0.264583px" d="m314.73019,209.93822l3.92661,-4.34738c1.20283,-0.93565 0.34932,-3.29599 -1.20271,-2.80632c-0.93544,-1.46999 -2.73951,-0.22273 -3.67496,0.8018c-2.09788,-0.31414 -1.26953,0.93544 -1.26953,0.93544l2.22059,5.41646z" id="path1136-3"/>
    <path fill="#008000" stroke-width="0.264583px" d="m307.23103,183.54111c1.45706,-0.65372 2.05782,0.28284 2.27179,1.9377c-0.24158,0.43112 -0.22132,1.01498 -2.52117,0.24545c0,0 -1.66821,-1.0321 0.24938,-2.18315z" id="path1138-3"/>
    <path fill="#008000" stroke-width="0.264583px" d="m333.77151,188.44721c1.45705,-0.65372 2.36069,-0.5326 2.33861,1.13589c-0.007,0.49415 -2.23339,1.94021 -4.32525,0.71318c-0.5955,-0.34931 0.069,-0.69802 1.98664,-1.84907z" id="path1138-9-8"/>
    <path fill="#cccccc" stroke-width="0.264583px" d="m307.69875,190.49011l3.40769,7.81764c1.06908,-0.60136 3.4745,-2.13816 3.4745,-2.13816l-2.73951,-5.14493l-4.14268,-0.53455z" id="path1155-4"/>
    <path fill="#cccccc" stroke-width="0.264583px" d="m329.0135,190.89102l2.13815,-0.93544l0.80181,1.87088l-1.40316,2.20498c0,0 -1.20271,-2.60588 -1.5368,-3.14042z" id="path1163-9"/>
    <path fill="none" fill-rule="evenodd" stroke="#b3b3b3" stroke-width="0.264583px" d="m304.07564,184.70883l8.70353,-6.8903l10.14667,2.05446l8.29741,-4.71186l14.63239,20.59739l-11.96849,5.8481l-10.22812,-1.3442l-9.00411,9.62509l-10.57928,-25.17868z" id="path23-7-5"/>
    <g id="g3428">
     <path fill="#999999" fill-rule="evenodd" stroke="#666666" stroke-width="0.165" stroke-miterlimit="4" id="path27-67" d="m324.73719,182.60566l-1.60362,5.74629l2.93996,-5.41221l-1.33634,-0.33408z"/>
     <path fill="#ff0000" fill-rule="evenodd" stroke="#800000" stroke-width="0.264583px" id="path25-4" d="m321.19586,179.53206c-0.95809,1.82241 6.56459,5.9735 9.08717,3.94223c0.96686,-1.35351 0.49751,-2.9135 0,-4.54358l0.66817,-2.93997c1.3855,0.0526 3.02988,-1.1957 2.53906,-2.87314c-1.3949,-3.36721 -7.39138,-3.72092 -8.01808,-2.33861c-0.65565,1.29824 -0.36524,2.24171 0.4009,3.00678l-1.5368,2.80633c-1.50436,0.86175 -2.49609,1.5053 -3.14042,2.93996z"/>
     <ellipse opacity="0.655" fill="#1a1a1a" fill-opacity="0.194444" fill-rule="nonzero" stroke-width="0.093227" stroke-linejoin="round" stroke-miterlimit="4" transform="matrix(0.89460442,0.44685897,-0.81252073,0.5829323,0,0) " ry="1.620159" rx="3.394913" cy="7.353201" cx="375.12607" id="path854-2"/>
     <circle fill="#ffb9b9" stroke-width="0.265" stroke-linecap="round" stroke-linejoin="round" stroke-miterlimit="4" r="0.902035" cy="179.36502" cx="324.70377" id="path898-9"/>
     <path opacity="0.341" fill="#000000" fill-rule="evenodd" stroke="#000000" stroke-width="0.065" stroke-miterlimit="4" id="path27-3-0" d="m332.89312,173.47154c0.28929,1.10926 -1.31008,2.05248 -2.57556,2.34508l-0.82815,3.13728c0.62176,1.6177 0.41943,3.03669 -0.55563,4.14062c-1.02715,0.77324 -4.16434,-0.12263 -4.16434,-0.12263c0.1324,0.3908 0.21951,0.33058 0.45779,0.50422c0,0 -1.48149,3.20318 -2.04301,4.8756l2.58332,-4.7397c1.73131,0.60729 3.63318,0.77559 4.59117,-0.0629c0.99192,-1.5122 0.52257,-2.98899 0.0251,-4.61907l0.64312,-2.83965c1.3855,0.0526 3.04639,-1.32106 2.55557,-2.9985c-0.87181,-2.1045 -3.59938,-3.10694 -5.63177,-3.16904c1.94679,0.5579 4.72868,1.36284 4.94239,3.5487l0,-0.00001z"/>
     <path fill="#a80000" stroke-width="0.264583px" id="path1199-7" d="m326.94624,174.56117c1.32375,0.69008 2.51324,1.3306 3.61439,1.18117l-0.0472,0.29529c-1.40354,-0.17041 -2.51088,-0.78513 -3.56715,-1.47646l-0.00004,0z"/>
     <path fill="#a80000" stroke-width="0.264583px" id="path1201-6" d="m329.92167,178.46823c-0.13965,0.0743 -0.41453,0.51969 -0.67995,0.49724c-0.99441,-0.0841 -2.67669,-0.75605 -3.5871,-1.33362c1.07564,0.71178 2.52717,1.51612 4.0673,1.64877l0.19975,-0.81239z"/>
     <circle fill="#ffb9b9" stroke-width="0.160898" stroke-linecap="round" stroke-linejoin="round" stroke-miterlimit="4" r="0.547682" cy="173.00201" cx="326.89899" id="path898-3-0"/>
    </g>
   </g>
  </g>
 </g>
</svg>