<?xml version="1.0" encoding="UTF-8" standalone="no"?>
<!-- Created with Inkscape (http://www.inkscape.org/) -->

<svg
   xmlns:dc="http://purl.org/dc/elements/1.1/"
   xmlns:cc="http://creativecommons.org/ns#"
   xmlns:rdf="http://www.w3.org/1999/02/22-rdf-syntax-ns#"
   xmlns:svg="http://www.w3.org/2000/svg"
   xmlns="http://www.w3.org/2000/svg"
   xmlns:sodipodi="http://sodipodi.sourceforge.net/DTD/sodipodi-0.dtd"
   xmlns:inkscape="http://www.inkscape.org/namespaces/inkscape"
   width="210mm"
   height="297mm"
   viewBox="0 0 210 297"
   version="1.1"
   id="svg3503"
   inkscape:version="0.92.3 (2405546, 2018-03-11)"
   sodipodi:docname="icono de mapa.svg">
  <defs
     id="defs3497" />
  <sodipodi:namedview
     id="base"
     pagecolor="#ffffff"
     bordercolor="#666666"
     borderopacity="1.0"
     inkscape:pageopacity="0.0"
     inkscape:pageshadow="2"
     inkscape:zoom="0.35"
     inkscape:cx="-48.571429"
     inkscape:cy="560"
     inkscape:document-units="mm"
     inkscape:current-layer="layer1"
     showgrid="false"
     inkscape:window-width="1298"
     inkscape:window-height="746"
     inkscape:window-x="60"
     inkscape:window-y="-8"
     inkscape:window-maximized="1" />
  <metadata
     id="metadata3500">
    <rdf:RDF>
      <cc:Work
         rdf:about="">
        <dc:format>image/svg+xml</dc:format>
        <dc:type
           rdf:resource="http://purl.org/dc/dcmitype/StillImage" />
        <dc:title></dc:title>
      </cc:Work>
    </rdf:RDF>
  </metadata>
  <g
     inkscape:label="Capa 1"
     inkscape:groupmode="layer"
     id="layer1">
    <g
       transform="matrix(3.6676776,0,0,3.6676776,-1085.838,-600.96915)"
       id="g3458">
      <path
         sodipodi:nodetypes="ccccccccc"
         inkscape:connector-curvature="0"
         id="path23-7"
         d="m 304.15091,184.75954 8.70353,-6.8903 10.14667,2.05446 8.29741,-4.71186 14.63238,20.59739 -11.96848,5.8481 -10.22812,-1.3442 -9.00411,9.62509 z"
         style="fill:#e6e6e6;fill-rule:evenodd;stroke:none;stroke-width:0.26458332px;stroke-linecap:butt;stroke-linejoin:miter;stroke-opacity:1" />
      <path
         sodipodi:nodetypes="ccccccccc"
         id="path29-2"
         d="m 311.24,179.13117 -2.4722,1.93786 3.09748,6.5872 -7.13755,-1.52445 0.93535,2.22673 7.29568,1.62264 6.84181,14.55592 3.10915,-3.33076 z"
         style="fill:#f59318;fill-opacity:1;fill-rule:evenodd;stroke:none;stroke-width:0.26458332px;stroke-linecap:butt;stroke-linejoin:miter;stroke-opacity:1"
         inkscape:connector-curvature="0" />
      <path
         sodipodi:nodetypes="cccccccccccccccccccccccccccccccccccccccccccccccccc"
         id="path1025-0"
         d="m 310.1026,180.04739 -0.26045,0.20671 0.53072,1.09347 0.32194,-0.16743 z m 1.08469,2.07481 -0.34985,0.18242 0.4532,0.93431 0.37776,-0.19689 z m 0.97358,1.8619 -0.40566,0.21188 0.5054,1.04128 0.43666,-0.2279 z m 1.02888,1.96732 -0.46509,0.24237 0.57929,1.19372 0.50023,-0.26045 z m 1.10742,2.11719 -0.52864,0.27543 0.64698,1.33326 0.56793,-0.29611 z m 1.17926,2.25464 -0.59634,0.31109 0.73432,1.51309 0.6413,-0.33383 z m 1.27176,2.43241 -0.66921,0.34881 0.72657,1.49707 0.71365,-0.37207 z m 1.26349,2.41587 -0.74208,0.38654 1.02165,2.1053 0.80408,-0.41909 z m 1.57664,3.0148 -0.83302,0.43357 0.78652,1.62058 0.88056,-0.45889 z m 1.32654,2.53732 -0.90899,0.47335 0.97934,1.99501 0.79117,-0.84595 z"
         style="fill:#ffffff;stroke:none;stroke-width:0.26458332px;stroke-linecap:butt;stroke-linejoin:miter;stroke-opacity:1"
         inkscape:connector-curvature="0" />
      <path
         id="path31-1"
         d="m 315.04855,178.26249 7.213,13.84566 -2.40192,0.2527 c -3.02332,2.6741 -6.13047,5.25099 -9.21494,7.85379 l 0.90381,2.1518 c 3.04171,-2.75024 6.06707,-5.51702 9.04597,-8.33489 l 2.44584,-0.42788 3.6344,6.9758 1.73737,0.26717 -8.41138,-16.23622 5.20434,-0.0672 9.28729,-4.81056 -0.93535,-1.40353 -8.95346,4.81108 -5.4684,-0.19999 -2.21537,-4.27674 z"
         style="fill:#f6d01e;fill-opacity:1;fill-rule:evenodd;stroke:none;stroke-width:0.26458332px;stroke-linecap:butt;stroke-linejoin:miter;stroke-opacity:1"
         inkscape:connector-curvature="0" />
      <path
         sodipodi:nodetypes="ccccccc"
         inkscape:connector-curvature="0"
         id="path37-6"
         d="m 333.96242,201.65733 11.96848,-5.8481 -3.63108,-5.11132 c -2.64763,-3.47178 -6.17563,-0.41039 -8.2082,0.9281 -2.26175,1.63725 -0.79389,4.40005 -2.73951,5.67947 -3.47942,-0.22559 -2.50267,3.27825 -1.00226,3.87541 z"
         style="fill:#82d1f3;fill-opacity:1;fill-rule:evenodd;stroke:none;stroke-width:0.26458332px;stroke-linecap:butt;stroke-linejoin:miter;stroke-opacity:1" />
      <path
         sodipodi:nodetypes="ccccccc"
         inkscape:connector-curvature="0"
         id="path1159-4"
         d="m 321.52995,185.74608 4.27631,-0.4009 5.27858,-2.53906 2.67269,4.54358 -5.74629,2.47224 -3.94223,0.80181 z"
         style="fill:#cccccc;fill-opacity:1;stroke:none;stroke-width:0.26458332px;stroke-linecap:butt;stroke-linejoin:miter;stroke-opacity:1" />
      <path
         sodipodi:nodetypes="ccccc"
         inkscape:connector-curvature="0"
         id="path1161-3"
         d="m 324.804,191.75965 2.27179,4.81085 3.20724,-1.1359 -2.27179,-4.34313 z"
         style="fill:#cccccc;fill-opacity:1;stroke:none;stroke-width:0.26458332px;stroke-linecap:butt;stroke-linejoin:miter;stroke-opacity:1" />
      <path
         inkscape:connector-curvature="0"
         id="path1165-8"
         d="m 318.58999,179.6657 1.06907,2.73951 3.54132,-0.0668 c 0,0 -1.06907,-2.13815 -1.33634,-2.27179 -0.26727,-0.13363 -3.27405,-0.4009 -3.27405,-0.4009 z"
         style="fill:#cccccc;fill-opacity:1;stroke:none;stroke-width:0.26458332px;stroke-linecap:butt;stroke-linejoin:miter;stroke-opacity:1" />
      <path
         inkscape:connector-curvature="0"
         id="path35-56"
         d="m 323.7343,200.31313 10.22812,1.3442 -10.96131,-21.73363 -10.14667,-2.05446 z"
         style="fill:#1a1a1a;fill-opacity:0.19444442;fill-rule:evenodd;stroke:none;stroke-width:0.26458332px;stroke-linecap:butt;stroke-linejoin:miter;stroke-opacity:1" />
      <path
         inkscape:connector-curvature="0"
         id="path1167-1"
         d="m 332.35437,182.33839 2.80633,-1.46998 4.67721,6.54811 -3.40768,1.33634 z"
         style="fill:#cccccc;fill-opacity:1;stroke:none;stroke-width:0.26458332px;stroke-linecap:butt;stroke-linejoin:miter;stroke-opacity:1" />
      <path
         inkscape:connector-curvature="0"
         id="path27-5-7"
         d="m 335.87044,181.80196 c -0.59615,-0.70138 -1.25088,-1.11682 -1.65993,-0.98606 -1.05839,0.28995 -1.4393,0.92983 -1.47984,1.74576 l -2.34847,0.55995 c -1.24352,-0.40593 -2.10546,-0.63539 -3.23446,-0.27008 -0.7743,0.19857 -0.75585,1.96573 -0.22829,3.68711 l -3.72745,1.86026 4.0458,-0.97906 c 0.53614,1.27629 1.34542,2.36021 2.3019,2.5124 0.99249,-0.10607 1.77906,-1.15041 2.54291,-2.29897 l 1.98354,-1.1136 c 0.67163,0.80207 2.20229,1.09063 2.89278,-0.0329 0.73675,-1.55284 -0.0948,-3.51593 -1.08847,-4.68485 z"
         style="opacity:0.51399997;fill:#7a7a7a;fill-opacity:1;fill-rule:evenodd;stroke:none;stroke-width:0.12449541;stroke-linecap:butt;stroke-linejoin:miter;stroke-miterlimit:4;stroke-dasharray:none;stroke-opacity:1" />
      <path
         sodipodi:nodetypes="ccccc"
         inkscape:connector-curvature="0"
         id="path1169-1"
         d="m 333.10447,177.98826 -1.35001,-1.90818 c -0.53454,0.13363 -2.47369,1.51428 -2.47369,1.51428 l 0.80991,2.02073 z"
         style="fill:#cccccc;fill-opacity:1;stroke:none;stroke-width:0.26458332px;stroke-linecap:butt;stroke-linejoin:miter;stroke-opacity:1" />
      <path
         id="path1027-4"
         d="m 305.07086,186.96377 0.30696,0.47232 0.71365,0.16381 0.0884,-0.40566 z m 2.14974,0.44648 -0.0925,0.42685 1.279,0.29352 0.0987,-0.4532 z m 2.32596,0.48369 -0.10335,0.47439 1.60248,0.36742 0.11059,-0.50746 z m 2.65048,0.55087 -0.11523,0.52865 1.29036,0.29611 -0.45837,-0.67593 z"
         style="fill:#ffffff;stroke:none;stroke-width:0.26458332px;stroke-linecap:butt;stroke-linejoin:miter;stroke-opacity:1"
         inkscape:connector-curvature="0" />
      <path
         sodipodi:nodetypes="cccccc"
         inkscape:connector-curvature="0"
         id="path1136-3"
         d="m 314.73019,209.93822 3.92661,-4.34738 c 1.20283,-0.93565 0.34932,-3.29599 -1.20271,-2.80632 -0.93544,-1.46999 -2.73951,-0.22273 -3.67496,0.8018 -2.09788,-0.31414 -1.26953,0.93544 -1.26953,0.93544 z"
         style="fill:#008000;stroke:none;stroke-width:0.26458332px;stroke-linecap:butt;stroke-linejoin:miter;stroke-opacity:1" />
      <path
         sodipodi:nodetypes="cccc"
         inkscape:connector-curvature="0"
         id="path1138-3"
         d="m 307.23103,183.54111 c 1.45706,-0.65372 2.05782,0.28284 2.27179,1.9377 -0.24158,0.43112 -0.22132,1.01498 -2.52117,0.24545 0,0 -1.66821,-1.0321 0.24938,-2.18315 z"
         style="fill:#008000;stroke:none;stroke-width:0.26458332px;stroke-linecap:butt;stroke-linejoin:miter;stroke-opacity:1" />
      <path
         sodipodi:nodetypes="cssc"
         inkscape:connector-curvature="0"
         id="path1138-9-8"
         d="m 333.77151,188.44721 c 1.45705,-0.65372 2.36069,-0.5326 2.33861,1.13589 -0.007,0.49415 -2.23339,1.94021 -4.32525,0.71318 -0.5955,-0.34931 0.069,-0.69802 1.98664,-1.84907 z"
         style="fill:#008000;stroke:none;stroke-width:0.26458332px;stroke-linecap:butt;stroke-linejoin:miter;stroke-opacity:1" />
      <path
         inkscape:connector-curvature="0"
         id="path1155-4"
         d="m 307.69875,190.49011 3.40769,7.81764 c 1.06908,-0.60136 3.4745,-2.13816 3.4745,-2.13816 l -2.73951,-5.14493 z"
         style="fill:#cccccc;stroke:none;stroke-width:0.26458332px;stroke-linecap:butt;stroke-linejoin:miter;stroke-opacity:1" />
      <path
         inkscape:connector-curvature="0"
         id="path1163-9"
         d="m 329.0135,190.89102 2.13815,-0.93544 0.80181,1.87088 -1.40316,2.20498 c 0,0 -1.20271,-2.60588 -1.5368,-3.14042 z"
         style="fill:#cccccc;fill-opacity:1;stroke:none;stroke-width:0.26458332px;stroke-linecap:butt;stroke-linejoin:miter;stroke-opacity:1" />
      <path
         sodipodi:nodetypes="ccccccccc"
         inkscape:connector-curvature="0"
         id="path23-7-5"
         d="m 304.07564,184.70883 8.70353,-6.8903 10.14667,2.05446 8.29741,-4.71186 14.63239,20.59739 -11.96849,5.8481 -10.22812,-1.3442 -9.00411,9.62509 z"
         style="fill:none;fill-rule:evenodd;stroke:#b3b3b3;stroke-width:0.26458332px;stroke-linecap:butt;stroke-linejoin:miter;stroke-opacity:1" />
      <g
         id="g3428">
        <path
           style="fill:#999999;fill-rule:evenodd;stroke:#666666;stroke-width:0.16500001;stroke-linecap:butt;stroke-linejoin:miter;stroke-miterlimit:4;stroke-dasharray:none;stroke-opacity:1"
           d="m 324.73719,182.60566 -1.60362,5.74629 2.93996,-5.41221 z"
           id="path27-67"
           inkscape:connector-curvature="0" />
        <path
           style="fill:#ff0000;fill-rule:evenodd;stroke:#800000;stroke-width:0.26458332px;stroke-linecap:butt;stroke-linejoin:miter;stroke-opacity:1"
           d="m 321.19586,179.53206 c -0.95809,1.82241 6.56459,5.9735 9.08717,3.94223 0.96686,-1.35351 0.49751,-2.9135 0,-4.54358 l 0.66817,-2.93997 c 1.3855,0.0526 3.02988,-1.1957 2.53906,-2.87314 -1.3949,-3.36721 -7.39138,-3.72092 -8.01808,-2.33861 -0.65565,1.29824 -0.36524,2.24171 0.4009,3.00678 l -1.5368,2.80633 c -1.50436,0.86175 -2.49609,1.5053 -3.14042,2.93996 z"
           id="path25-4"
           inkscape:connector-curvature="0"
           sodipodi:nodetypes="ccccccccc" />
        <ellipse
           style="opacity:0.65499998;fill:#1a1a1a;fill-opacity:0.19444442;fill-rule:nonzero;stroke:none;stroke-width:0.09322709;stroke-linejoin:round;stroke-miterlimit:4;stroke-dasharray:none;stroke-opacity:1"
           id="path854-2"
           cx="375.12607"
           cy="7.3532014"
           rx="3.394913"
           ry="1.6201587"
           transform="matrix(0.89460442,0.44685897,-0.81252073,0.5829323,0,0)" />
        <circle
           style="opacity:1;fill:#ffb9b9;fill-opacity:1;stroke:none;stroke-width:0.26499999;stroke-linecap:round;stroke-linejoin:round;stroke-miterlimit:4;stroke-dasharray:none;stroke-opacity:1"
           id="path898-9"
           cx="324.70377"
           cy="179.36502"
           r="0.90203464" />
        <path
           style="opacity:0.34100001;fill:#000000;fill-rule:evenodd;stroke:#000000;stroke-width:0.065;stroke-linecap:butt;stroke-linejoin:miter;stroke-miterlimit:4;stroke-dasharray:none;stroke-opacity:1"
           d="m 332.89312,173.47154 c 0.28929,1.10926 -1.31008,2.05248 -2.57556,2.34508 l -0.82815,3.13728 c 0.62176,1.6177 0.41943,3.03669 -0.55563,4.14062 -1.02715,0.77324 -4.16434,-0.12263 -4.16434,-0.12263 0.1324,0.3908 0.21951,0.33058 0.45779,0.50422 0,0 -1.48149,3.20318 -2.04301,4.8756 l 2.58332,-4.7397 c 1.73131,0.60729 3.63318,0.77559 4.59117,-0.0629 0.99192,-1.5122 0.52257,-2.98899 0.0251,-4.61907 l 0.64312,-2.83965 c 1.3855,0.0526 3.04639,-1.32106 2.55557,-2.9985 -0.87181,-2.1045 -3.59938,-3.10694 -5.63177,-3.16904 1.94679,0.5579 4.72868,1.36284 4.94239,3.5487 z"
           id="path27-3-0"
           inkscape:connector-curvature="0"
           sodipodi:nodetypes="cccccccccccccc" />
        <path
           style="fill:#a80000;fill-opacity:1;stroke:none;stroke-width:0.26458332px;stroke-linecap:butt;stroke-linejoin:miter;stroke-opacity:1"
           d="m 326.94624,174.56117 c 1.32375,0.69008 2.51324,1.3306 3.61439,1.18117 l -0.0472,0.29529 c -1.40354,-0.17041 -2.51088,-0.78513 -3.56715,-1.47646 z"
           id="path1199-7"
           inkscape:connector-curvature="0"
           sodipodi:nodetypes="ccccc" />
        <path
           style="fill:#a80000;fill-opacity:1;stroke:none;stroke-width:0.26458332px;stroke-linecap:butt;stroke-linejoin:miter;stroke-opacity:1"
           d="m 329.92167,178.46823 c -0.13965,0.0743 -0.41453,0.51969 -0.67995,0.49724 -0.99441,-0.0841 -2.67669,-0.75605 -3.5871,-1.33362 1.07564,0.71178 2.52717,1.51612 4.0673,1.64877 z"
           id="path1201-6"
           inkscape:connector-curvature="0"
           sodipodi:nodetypes="csccc" />
        <circle
           style="opacity:1;fill:#ffb9b9;fill-opacity:1;stroke:none;stroke-width:0.16089816;stroke-linecap:round;stroke-linejoin:round;stroke-miterlimit:4;stroke-dasharray:none;stroke-opacity:1"
           id="path898-3-0"
           cx="326.89899"
           cy="173.00201"
           r="0.54768199" />
      </g>
    </g>
  </g>
</svg>
